# xmcd
#
# Track frame offsets:
#	150
#	22525
#	41300
#	62562
#	84675
#	100525
#	117900
#	133925
#	154025
#	173825
#	198212
#	218450
#	239387
#	258925
#	277762
#	294612
#
# Disc length: 4185 seconds
#
# Revision: 1
# Processed by: cddbd v1.5.1PL0 Copyright (c) Steve Scherf et al.
# Submitted via: CDex 1.50Beta5
#
DISCID=c9105710
DTITLE=渡哲也 - 有線ヒット最前線’91
DYEAR=1991
DGENRE=World
TTITLE0=渡哲也/ありんこ
TTITLE1=テレサ・テン/時の流れに身をまかせ
TTITLE2=牧村三枝子/友禅流し
TTITLE3=沢田知可子/会いたい
TTITLE4=野口五郎/私鉄沿線
TTITLE5=テレサ・テン/つぐない
TTITLE6=渡哲也/くちなしの花
TTITLE7=歌川二三子/古い女で通します
TTITLE8=原大輔/どうぞお元気で
TTITLE9=ココ&ラニー/DO YOU REMEMBER?
TTITLE10=テレサ・テン/別れの予感
TTITLE11=黛ジュン/小説
TTITLE12=HAKO/気分を変えて
TTITLE13=牧村三枝子/みちづれ
TTITLE14=渡哲也/わかれ道
TTITLE15=テレサ・テン/悲しみと踊らせて
EXTD=
EXTT0=
EXTT1=
EXTT2=
EXTT3=
EXTT4=
EXTT5=
EXTT6=
EXTT7=
EXTT8=
EXTT9=
EXTT10=
EXTT11=
EXTT12=
EXTT13=
EXTT14=
EXTT15=
PLAYORDER=
